SplineFontDB: 3.2
FontName: Punk-Font-01
FullName: Punk Font 01
FamilyName: Punk Font 01
Weight: Regular
Copyright: Copyright (c) 2019, Marco
UComments: "2019-4-6: Created with FontForge (http://fontforge.org)"
Version: 001.000
ItalicAngle: 0
UnderlinePosition: -100
UnderlineWidth: 50
Ascent: 800
Descent: 200
InvalidEm: 0
LayerCount: 2
Layer: 0 0 "Sfondo" 1
Layer: 1 0 "Fore" 0
XUID: [1021 943 -2105619685 18527]
StyleMap: 0x0000
FSType: 0
OS2Version: 0
OS2_WeightWidthSlopeOnly: 0
OS2_UseTypoMetrics: 1
CreationTime: 1554578946
ModificationTime: 1700399959
OS2TypoAscent: 0
OS2TypoAOffset: 1
OS2TypoDescent: 0
OS2TypoDOffset: 1
OS2TypoLinegap: 90
OS2WinAscent: 0
OS2WinAOffset: 1
OS2WinDescent: 0
OS2WinDOffset: 1
HheadAscent: 0
HheadAOffset: 1
HheadDescent: 0
HheadDOffset: 1
OS2Vendor: 'PfEd'
Lookup: 3 0 0 "'aalt' Accedi a tutte le alternative in Latino lookup 0" { "'aalt' Accedi a tutte le alternative in Latino lookup 0-1"  } ['aalt' ('latn' <'dflt' > ) ]
Lookup: 258 0 0 "'kern' Crenatura orizzontale in Latino lookup 0" { "'kern' Crenatura orizzontale in Latino lookup 0-1" [150,15,2] } ['kern' ('DFLT' <'dflt' > 'latn' <'dflt' > ) ]
MarkAttachClasses: 1
DEI: 91125
LangName: 1033
Encoding: ISO8859-1
UnicodeInterp: none
NameList: AGL For New Fonts
DisplaySize: -48
AntiAlias: 1
FitToEm: 0
WinInfo: 51 17 13
BeginPrivate: 0
EndPrivate
TeXData: 1 0 0 1048576 524288 349525 0 1048576 349525 783286 444596 497025 792723 393216 433062 380633 303038 157286 324010 404750 52429 2506097 1059062 262144
BeginChars: 268 53

StartChar: A
Encoding: 65 65 0
Width: 508
VWidth: 0
Flags: W
HStem: 0 21G<36.6846 162.433 350.99 471.414> 135.47 132.721<210.205 297.905> 780 20G<167.558 340.666>
LayerCount: 2
Fore
SplineSet
479.995117188 13.7998046875 m 2
 480.063476562 13.3251953125 480.120117188 12.5498046875 480.120117188 12.0703125 c 0
 480.120117188 5.4326171875 474.732421875 0.025390625 468.094726562 0 c 2
 353.825195312 0 l 2
 348.154296875 0.0244140625 342.83203125 4.5888671875 341.9453125 10.1904296875 c 2
 317.745117188 135.469726562 l 1
 190.485351562 135.469726562 l 1
 171.485351562 10.1904296875 l 2
 170.59765625 4.5849609375 165.270507812 0.01953125 159.594726562 0 c 2
 39.9951171875 0 l 2
 33.3740234375 0.041015625 28 5.4482421875 28 12.0693359375 c 0
 28 12.5498046875 28.056640625 13.3251953125 28.125 13.7998046875 c 2
 158.504882812 789.809570312 l 2
 159.392578125 795.415039062 164.719726562 799.98046875 170.395507812 800 c 2
 337.825195312 800 l 2
 343.505859375 799.98046875 348.836914062 795.411132812 349.725585938 789.799804688 c 2
 479.995117188 13.7998046875 l 2
210.205078125 268.190429688 m 1
 297.905273438 268.190429688 l 1
 254.0546875 579.6796875 l 1
 210.205078125 268.190429688 l 1
EndSplineSet
Validated: 1
AlternateSubs2: "'aalt' Accedi a tutte le alternative in Latino lookup 0-1" A_bis
EndChar

StartChar: B
Encoding: 66 66 1
Width: 489
VWidth: 0
Flags: W
HStem: 0 132.68<177.69 305.524> 333.685 132.7<177.69 305.391> 667.32 132.68<177.68 305.534>
VStem: 45 132.69<132.68 333.68 466.39 667.32> 311.95 132.68<139.105 327.19 472.825 660.914>
LayerCount: 2
Back
SplineSet
444.629882812 488.469726562 m 2
 444.61328125 439.662109375 404.98828125 400.049804688 356.1796875 400.049804688 c 0
 356.161132812 400.049804688 356.12890625 400.049804688 356.110351562 400.049804688 c 1
 404.961914062 400.0390625 444.619140625 360.381835938 444.629882812 311.530273438 c 2
 444.629882812 126.950195312 l 2
 444.602539062 56.8740234375 387.706054688 0 317.629882812 0 c 0
 317.616210938 0 317.59375 0 317.580078125 0 c 2
 57 0 l 2
 57 0 l 0
 50.3759765625 0 45 5.3759765625 45 12 c 0
 45 12.02734375 45 12.072265625 45 12.099609375 c 2
 45 788 l 2
 45 794.624023438 50.3759765625 800 57 800 c 2
 317.580078125 800 l 2
 317.59375 800 317.616210938 800 317.629882812 800 c 0
 387.706054688 800 444.602539062 743.125976562 444.629882812 673.049804688 c 2
 444.629882812 488.469726562 l 2
177.6796875 667.3203125 m 1
 177.6796875 466.389648438 l 1
 267.6796875 466.389648438 l 2
 267.815429688 466.387695312 268.03515625 466.384765625 268.169921875 466.384765625 c 0
 268.797851562 466.384765625 269.814453125 466.431640625 270.440429688 466.490234375 c 0
 293.3359375 467.92578125 311.927734375 487.708984375 311.940429688 510.650390625 c 2
 311.940429688 623.049804688 l 2
 311.940429688 623.061523438 311.940429688 623.079101562 311.940429688 623.08984375 c 0
 311.940429688 647.504882812 292.125 667.3203125 267.709960938 667.3203125 c 0
 267.702148438 667.3203125 267.688476562 667.3203125 267.6796875 667.3203125 c 2
 177.6796875 667.3203125 l 1
311.950195312 176.940429688 m 2
 311.950195312 289.419921875 l 2
 311.950195312 289.431640625 311.950195312 289.451171875 311.950195312 289.462890625 c 0
 311.950195312 312.413085938 293.358398438 332.177734375 270.450195312 333.580078125 c 0
 269.825195312 333.637695312 268.807617188 333.684570312 268.180664062 333.684570312 c 0
 268.044921875 333.684570312 267.825195312 333.682617188 267.690429688 333.6796875 c 2
 177.690429688 333.6796875 l 1
 177.690429688 132.6796875 l 1
 267.690429688 132.6796875 l 2
 292.099609375 132.702148438 311.927734375 152.530273438 311.950195312 176.940429688 c 2
EndSplineSet
Fore
SplineSet
444.629882812 488.469726562 m 2
 444.61328125 439.662109375 404.98828125 400.049804688 356.1796875 400.049804688 c 0
 356.161132812 400.049804688 356.12890625 400.049804688 356.110351562 400.049804688 c 1
 404.961914062 400.0390625 444.619140625 360.381835938 444.629882812 311.530273438 c 2
 444.629882812 126.950195312 l 2
 444.602539062 56.8740234375 387.706054688 0 317.629882812 0 c 0
 317.616210938 0 317.59375 0 317.580078125 0 c 2
 57 0 l 2
 50.3759765625 0 45 5.3759765625 45 12 c 0
 45 12.02734375 45 12.072265625 45 12.099609375 c 2
 45 788 l 2
 45 794.624023438 50.3759765625 800 57 800 c 2
 317.580078125 800 l 2
 317.59375 800 317.616210938 800 317.629882812 800 c 0
 387.706054688 800 444.602539062 743.125976562 444.629882812 673.049804688 c 2
 444.629882812 488.469726562 l 2
177.6796875 667.3203125 m 1
 177.6796875 466.389648438 l 1
 267.6796875 466.389648438 l 2
 267.815429688 466.387695312 268.03515625 466.384765625 268.169921875 466.384765625 c 0
 268.797851562 466.384765625 269.814453125 466.431640625 270.440429688 466.490234375 c 0
 293.3359375 467.92578125 311.927734375 487.708984375 311.940429688 510.650390625 c 2
 311.940429688 623.049804688 l 2
 311.940429688 623.061523438 311.940429688 623.079101562 311.940429688 623.08984375 c 0
 311.940429688 647.504882812 292.125 667.3203125 267.709960938 667.3203125 c 0
 267.702148438 667.3203125 267.688476562 667.3203125 267.6796875 667.3203125 c 2
 177.6796875 667.3203125 l 1
311.950195312 176.940429688 m 2
 311.950195312 289.419921875 l 2
 311.950195312 289.431640625 311.950195312 289.451171875 311.950195312 289.462890625 c 0
 311.950195312 312.413085938 293.358398438 332.177734375 270.450195312 333.580078125 c 0
 269.825195312 333.637695312 268.807617188 333.684570312 268.180664062 333.684570312 c 0
 268.044921875 333.684570312 267.825195312 333.682617188 267.690429688 333.6796875 c 2
 177.690429688 333.6796875 l 1
 177.690429688 132.6796875 l 1
 267.690429688 132.6796875 l 2
 292.099609375 132.702148438 311.927734375 152.530273438 311.950195312 176.940429688 c 2
EndSplineSet
Validated: 1
EndChar

StartChar: C
Encoding: 67 67 2
Width: 462
VWidth: 0
Flags: W
HStem: 0.0595703 132.721<184.065 278.025> 667.34 132.66<184.065 278.055>
VStem: 45 132.66<139.185 660.935> 284.43 132.63<139.185 284.71 515.4 660.935>
LayerCount: 2
Fore
SplineSet
417.08984375 673 m 0
 417.08984375 527.400390625 l 2
 417.08984375 520.776367188 411.713867188 515.400390625 405.08984375 515.400390625 c 2
 296.459960938 515.400390625 l 2
 289.8359375 515.400390625 284.459960938 520.776367188 284.459960938 527.400390625 c 2
 284.459960938 623.120117188 l 2
 284.459960938 647.529296875 264.649414062 667.33984375 240.240234375 667.33984375 c 2
 221.879882812 667.33984375 l 2
 197.470703125 667.33984375 177.66015625 647.529296875 177.66015625 623.120117188 c 2
 177.66015625 177 l 2
 177.66015625 152.590820312 197.470703125 132.780273438 221.879882812 132.780273438 c 2
 240.200195312 132.780273438 l 2
 240.203125 132.780273438 240.20703125 132.780273438 240.209960938 132.780273438 c 0
 264.619140625 132.780273438 284.4296875 152.590820312 284.4296875 177 c 0
 284.4296875 272.709960938 l 2
 284.4296875 279.333984375 289.805664062 284.709960938 296.4296875 284.709960938 c 2
 405.059570312 284.709960938 l 2
 411.68359375 284.709960938 417.059570312 279.333984375 417.059570312 272.709960938 c 2
 417.059570312 127.059570312 l 2
 417.059570312 56.9560546875 360.1640625 0.0595703125 290.059570312 0.0595703125 c 2
 177.66015625 0.0595703125 l 1
 177.66015625 -0.0400390625 l 1
 172 -0.0400390625 l 2
 101.895507812 -0.0400390625 45 56.8564453125 45 126.959960938 c 0
 45 126.970703125 45 126.989257812 45 127 c 2
 45 673 l 2
 45 743.103515625 101.896484375 800 172 800 c 2
 290.139648438 800 l 2
 360.216796875 799.97265625 417.08984375 743.076171875 417.08984375 673 c 0
EndSplineSet
Validated: 1
EndChar

StartChar: D
Encoding: 68 68 3
Width: 486
VWidth: 0
Flags: W
HStem: 0 132.66<177.61 302.425> 667.34 132.66<177.61 302.425>
VStem: 45 132.61<132.66 667.34> 308.83 132.71<139.065 660.935>
LayerCount: 2
Fore
SplineSet
45 788 m 2
 45 794.624023438 50.3759765625 800 57 800 c 2
 314.540039062 800 l 2
 384.643554688 800 441.540039062 743.103515625 441.540039062 673 c 2
 441.540039062 127 l 2
 441.540039062 56.896484375 384.643554688 0 314.540039062 0 c 2
 57 0 l 2
 50.3759765625 0 45 5.3759765625 45 12 c 2
 45 788 l 2
264.610351562 132.66015625 m 2
 289.01953125 132.66015625 308.830078125 152.470703125 308.830078125 176.879882812 c 2
 308.830078125 623.120117188 l 2
 308.830078125 647.529296875 289.01953125 667.33984375 264.610351562 667.33984375 c 0
 177.610351562 667.33984375 l 1
 177.610351562 132.66015625 l 1
 264.610351562 132.66015625 l 2
EndSplineSet
Validated: 1
EndChar

StartChar: E
Encoding: 69 69 4
Width: 460
VWidth: 0
Flags: W
HStem: 0 144.26<177.5 415.87> 373.96 111.26<177.5 358.5> 667 133<177.5 405.3>
VStem: 45 132.5<144.26 373.96 485.22 667>
LayerCount: 2
Fore
SplineSet
177.5 667 m 1
 177.5 485.219726562 l 1
 346.5 485.219726562 l 2
 353.124023438 485.219726562 358.5 479.84375 358.5 473.219726562 c 2
 358.5 385.959960938 l 2
 358.5 379.3359375 353.124023438 373.959960938 346.5 373.959960938 c 2
 177.5 373.959960938 l 1
 177.5 144.259765625 l 1
 403.870117188 144.259765625 l 2
 410.494140625 144.259765625 415.870117188 138.883789062 415.870117188 132.259765625 c 2
 415.870117188 12 l 2
 415.870117188 5.3759765625 410.494140625 0 403.870117188 0 c 0
 403.853515625 0 403.826171875 0 403.809570312 0 c 2
 57 1.08984375 l 2
 50.3759765625 1.08984375 45 6.4658203125 45 13.08984375 c 2
 45 788 l 2
 45 794.624023438 50.3759765625 800 57 800 c 0
 57.013671875 800 57.0361328125 800 57.0498046875 800 c 2
 393.299804688 799 l 2
 399.923828125 799 405.299804688 793.624023438 405.299804688 787 c 2
 405.299804688 679 l 2
 405.299804688 672.375976562 399.923828125 667 393.299804688 667 c 2
 177.5 667 l 1
EndSplineSet
Validated: 1
EndChar

StartChar: F
Encoding: 70 70 5
Width: 450
VWidth: 0
Flags: W
HStem: -0.000976562 21G<165.512 168.842> 372.54 113.94<177.52 358.52> 667 133<177.52 405.32>
VStem: 45 132.53<0.94252 372.54 486.48 667>
LayerCount: 2
Fore
SplineSet
177.51953125 372.540039062 m 1
 177.530273438 12 l 2
 177.530273438 11.9990234375 l 0
 177.530273438 5.375 172.154296875 -0.0009765625 165.530273438 -0.0009765625 c 0
 165.494140625 -0.0009765625 165.435546875 0 165.400390625 0 c 2
 57 1 l 2
 50.3759765625 1 45 6.3759765625 45 13 c 2
 45 788 l 2
 45 794.624023438 50.3759765625 800 57 800 c 0
 57.0166015625 800 57.04296875 800 57.0595703125 800 c 2
 393.3203125 799 l 2
 399.944335938 799 405.3203125 793.624023438 405.3203125 787 c 2
 405.3203125 679 l 2
 405.3203125 672.375976562 399.944335938 667 393.3203125 667 c 2
 177.51953125 667 l 1
 177.51953125 486.48046875 l 1
 346.51953125 486.48046875 l 2
 353.143554688 486.48046875 358.51953125 481.103515625 358.51953125 474.48046875 c 2
 358.51953125 384.540039062 l 2
 358.51953125 377.916015625 353.143554688 372.540039062 346.51953125 372.540039062 c 2
 177.51953125 372.540039062 l 1
EndSplineSet
Validated: 1
EndChar

StartChar: G
Encoding: 71 71 6
Width: 462
VWidth: 0
Flags: W
HStem: 0 132.63<184.023 277.977> 667.37 132.63<184.038 277.967>
VStem: 45 132.63<139.023 660.962> 227.84 189.16<247.64 380.23> 284.37 132.63<139.023 247.64 530 660.977>
LayerCount: 2
Fore
SplineSet
284.360351562 542 m 2xe8
 284.360351562 623.23046875 l 2
 284.360351562 647.595703125 264.584960938 667.370117188 240.219726562 667.370117188 c 2
 221.870117188 667.370117188 l 2
 197.44921875 667.370117188 177.629882812 647.55078125 177.629882812 623.129882812 c 2
 177.629882812 176.76953125 l 2
 177.629882812 152.404296875 197.404296875 132.629882812 221.76953125 132.629882812 c 2
 240.23046875 132.629882812 l 2
 264.595703125 132.629882812 284.370117188 152.404296875 284.370117188 176.76953125 c 2
 284.370117188 247.639648438 l 1xe8
 239.83984375 247.639648438 l 2
 233.215820312 247.639648438 227.83984375 253.015625 227.83984375 259.639648438 c 2
 227.83984375 368.23046875 l 2
 227.83984375 374.853515625 233.215820312 380.23046875 239.83984375 380.23046875 c 2
 405 380.23046875 l 2
 411.624023438 380.23046875 417 374.853515625 417 368.23046875 c 2xf0
 417 126.900390625 l 2
 417 56.8515625 360.1484375 0 290.099609375 0 c 0
 290.09765625 0 290.092773438 0 290.08984375 0 c 2
 172 0 l 2
 101.896484375 0 45 56.896484375 45 127 c 2
 45 673 l 2
 45 743.103515625 101.896484375 800 172 800 c 2
 290.08984375 800 l 2
 290.092773438 800 290.09765625 800 290.099609375 800 c 0
 360.1484375 800 417 743.1484375 417 673.099609375 c 2
 417 542 l 2
 417 535.375976562 411.624023438 530 405 530 c 2
 296.360351562 530 l 2
 289.736328125 530 284.360351562 535.375976562 284.360351562 542 c 2xe8
EndSplineSet
Validated: 1
EndChar

StartChar: H
Encoding: 72 72 7
Width: 458
VWidth: 0
Flags: W
HStem: 0 21G<53.688 168.992 289.688 404.942> 381.48 103.81<177.68 281> 780 20G<53.688 168.952 289.688 404.942>
VStem: 45 132.68<0 381.48 485.29 800> 281 132.63<0 381.48 485.29 800>
LayerCount: 2
Fore
SplineSet
413.629882812 788 m 0
 413.629882812 12 l 2
 413.629882812 5.3759765625 408.25390625 0 401.629882812 0 c 2
 293 0 l 2
 286.375976562 0 281 5.3759765625 281 12 c 2
 281 381.48046875 l 1
 177.6796875 381.48046875 l 1
 177.6796875 12 l 2
 177.6796875 5.3759765625 172.303710938 0 165.6796875 0 c 2
 57 0 l 2
 50.3759765625 0 45 5.3759765625 45 12 c 2
 45 788 l 2
 45 794.624023438 50.3759765625 800 57 800 c 2
 165.639648438 800 l 2
 172.263671875 800 177.639648438 794.624023438 177.639648438 788 c 2
 177.639648438 485.290039062 l 1
 281 485.290039062 l 1
 281 788 l 2
 281 794.624023438 286.375976562 800 293 800 c 2
 401.599609375 800 l 2
 401.608398438 800 401.622070312 800 401.629882812 800 c 0
 408.25390625 800 413.629882812 794.624023438 413.629882812 788 c 0
EndSplineSet
Validated: 1
EndChar

StartChar: I
Encoding: 73 73 8
Width: 222
VWidth: 0
Flags: W
HStem: 0 21G<51.0151 171.655> 780 20G<51.0151 171.655>
VStem: 45 132.67<0 800>
LayerCount: 2
Fore
SplineSet
45 787.969726562 m 2
 45 800 45 800 57.0302734375 800 c 2
 165.639648438 800 l 2
 177.669921875 800 177.669921875 800 177.669921875 787.969726562 c 2
 177.669921875 12.0302734375 l 2
 177.669921875 0 177.669921875 0 165.639648438 0 c 2
 57.0302734375 0 l 2
 45 0 45 0 45 12.0302734375 c 2
 45 787.969726562 l 2
EndSplineSet
Validated: 1
EndChar

StartChar: J
Encoding: 74 74 9
Width: 382
VWidth: 0
Flags: W
HStem: 0 132.63<40 186.425> 667.34 132.66<86.2002 200.17>
VStem: 200.17 132.64<146.375 667.34>
LayerCount: 2
Fore
SplineSet
332.809570312 788 m 0
 332.809570312 127 l 2
 332.809570312 56.896484375 275.9140625 0 205.809570312 0 c 2
 52 0 l 2
 45.3759765625 0 40 5.3759765625 40 12 c 2
 40 120.629882812 l 2
 40 127.25390625 45.3759765625 132.629882812 52 132.629882812 c 2
 140 132.629882812 l 2
 173.213867188 132.629882812 200.169921875 159.5859375 200.169921875 192.799804688 c 2
 200.169921875 667.33984375 l 1
 98.2001953125 667.33984375 l 2
 91.576171875 667.33984375 86.2001953125 672.715820312 86.2001953125 679.33984375 c 2
 86.2001953125 788 l 2
 86.2001953125 794.624023438 91.576171875 800 98.2001953125 800 c 2
 320.780273438 800 l 2
 320.788085938 800 320.801757812 800 320.809570312 800 c 0
 327.43359375 800 332.809570312 794.624023438 332.809570312 788 c 0
EndSplineSet
Validated: 1
EndChar

StartChar: K
Encoding: 75 75 10
Width: 558
VWidth: 0
Flags: W
HStem: 0 21G<53.688 168.972 391.584 514.333> 780 20G<53.688 168.942 352.22 480.533>
VStem: 45 132.63<0 211.62 472.2 800>
LayerCount: 2
Fore
SplineSet
511 0 m 2
 393.870117188 0 l 2
 393.86328125 0 393.852539062 0 393.845703125 0 c 0
 389.323242188 0 384.31640625 3.41796875 382.669921875 7.6298828125 c 2
 249.509765625 346.190429688 l 1
 177.66015625 211.620117188 l 1
 177.66015625 12 l 2
 177.66015625 5.3759765625 172.284179688 0 165.66015625 0 c 2
 57 0 l 2
 50.3759765625 0 45 5.3759765625 45 12 c 2
 45 788 l 2
 45 794.624023438 50.3759765625 800 57 800 c 2
 165.629882812 800 l 2
 172.25390625 800 177.629882812 794.624023438 177.629882812 788 c 2
 177.629882812 472.200195312 l 1
 343.5703125 793.490234375 l 2
 345.418945312 797.083984375 350.19921875 800 354.240234375 800 c 0
 354.249023438 800 354.26171875 800 354.26953125 800 c 2
 477.16015625 800 l 2
 477.176757812 800 477.204101562 800 477.220703125 800 c 0
 483.844726562 800 489.220703125 794.624023438 489.220703125 788 c 0
 489.220703125 786.326171875 488.575195312 783.772460938 487.780273438 782.299804688 c 2
 330.780273438 488.080078125 l 1
 522.120117188 16.5595703125 l 2
 522.6171875 15.3505859375 523.020507812 13.3076171875 523.020507812 12 c 0
 523.020507812 5.3759765625 517.64453125 0 511.020507812 0 c 0
 511.014648438 0 511.005859375 0 511 0 c 2
EndSplineSet
Validated: 1
EndChar

StartChar: L
Encoding: 76 76 11
Width: 414
VWidth: 0
Flags: W
HStem: 0 144.2<177.49 369.13> 780 20G<53.688 168.802>
VStem: 45 132.49<144.2 800>
LayerCount: 2
Fore
SplineSet
45 788 m 2
 45 794.624023438 50.3759765625 800 57 800 c 2
 165.490234375 800 l 2
 172.114257812 800 177.490234375 794.624023438 177.490234375 788 c 2
 177.490234375 144.200195312 l 1
 357.129882812 144.200195312 l 2
 363.75390625 144.200195312 369.129882812 138.82421875 369.129882812 132.200195312 c 2
 369.129882812 12 l 2
 369.129882812 5.3759765625 363.75390625 0 357.129882812 0 c 0
 357.11328125 0 357.086914062 0 357.0703125 0 c 2
 57 1.08984375 l 2
 50.3759765625 1.08984375 45 6.4658203125 45 13.08984375 c 2
 45 788 l 2
EndSplineSet
Validated: 1
EndChar

StartChar: M
Encoding: 77 77 12
Width: 640
VWidth: 0
Flags: W
HStem: 0 21G<53.688 171.982 290.207 349.873 468.688 586.912> 780 20G<53.688 171.312 468.748 586.912>
VStem: 45 135.67<0 415.39 768.012 800> 460 135.6<0 418.36>
LayerCount: 2
Fore
SplineSet
595.599609375 788 m 0
 595.599609375 12 l 2
 595.599609375 5.3759765625 590.223632812 0 583.599609375 0 c 2
 472 0 l 2
 465.375976562 0 460 5.3759765625 460 12 c 2
 460 418.360351562 l 1
 361.1796875 12.240234375 l 2
 359.915039062 5.4833984375 353.309570312 0 346.436523438 0 c 0
 346.42578125 0 346.41015625 0 346.400390625 0 c 2
 293.6796875 0 l 2
 293.669921875 0 293.654296875 0 293.643554688 0 c 0
 286.770507812 0 280.165039062 5.4833984375 278.900390625 12.240234375 c 2
 180.669921875 415.389648438 l 1
 180.669921875 12 l 2
 180.669921875 5.3759765625 175.293945312 0 168.669921875 0 c 2
 57 0 l 2
 50.3759765625 0 45 5.3759765625 45 12 c 2
 45 788 l 2
 45 794.624023438 50.3759765625 800 57 800 c 2
 168.169921875 800 l 2
 168.177734375 800 168.190429688 800 168.198242188 800 c 0
 174.426757812 800 180.8828125 795.143554688 182.610351562 789.16015625 c 2
 320.08984375 367.950195312 l 1
 457.450195312 789.150390625 l 2
 459.173828125 795.139648438 465.631835938 800 471.864257812 800 c 0
 471.874023438 800 471.890625 800 471.900390625 800 c 2
 583.559570312 800 l 2
 583.571289062 800 583.588867188 800 583.599609375 800 c 0
 590.223632812 800 595.599609375 794.624023438 595.599609375 788 c 0
EndSplineSet
Validated: 1
AlternateSubs2: "'aalt' Accedi a tutte le alternative in Latino lookup 0-1" M_bis M_tris
EndChar

StartChar: N
Encoding: 78 78 13
Width: 517
VWidth: 0
Flags: W
HStem: 0 21G<53.688 168.972 347.111 463.822> 780 20G<53.688 170.179 348.528 463.822>
VStem: 45 132.66<0 426.37 790.3 800> 339.84 132.67<0 9.7002 373 800>
LayerCount: 2
Fore
SplineSet
472.509765625 788 m 0
 472.509765625 12 l 2
 472.509765625 5.3759765625 467.133789062 0 460.509765625 0 c 2
 350 0 l 2
 349.9921875 0 349.98046875 0 349.97265625 0 c 0
 344.249023438 0 337.961914062 4.345703125 335.940429688 9.7001953125 c 2
 177.66015625 426.370117188 l 1
 177.66015625 12 l 2
 177.66015625 5.3759765625 172.284179688 0 165.66015625 0 c 2
 57 0 l 2
 50.3759765625 0 45 5.3759765625 45 12 c 2
 45 788 l 2
 45 794.624023438 50.3759765625 800 57 800 c 2
 167.290039062 800 l 2
 167.297851562 800 167.309570312 800 167.317382812 800 c 0
 173.041015625 800 179.328125 795.654296875 181.349609375 790.299804688 c 2
 339.83984375 373 l 1
 339.83984375 788 l 2
 339.83984375 794.624023438 345.215820312 800 351.83984375 800 c 2
 460.469726562 800 l 2
 460.481445312 800 460.499023438 800 460.509765625 800 c 0
 467.133789062 800 472.509765625 794.624023438 472.509765625 788 c 0
EndSplineSet
Validated: 1
EndChar

StartChar: O
Encoding: 79 79 14
Width: 486
VWidth: 0
Flags: W
HStem: 0 132.68<184.086 302.464> 667.32 132.68<184.086 302.464>
VStem: 45 132.68<139.086 660.914> 308.87 132.71<139.086 660.914>
LayerCount: 2
Fore
SplineSet
45 673 m 2
 45 743.103515625 101.896484375 800 172 800 c 2
 314.580078125 800 l 2
 384.68359375 800 441.580078125 743.103515625 441.580078125 673 c 2
 441.580078125 127 l 2
 441.580078125 56.896484375 384.68359375 0 314.580078125 0 c 2
 172 0 l 2
 101.896484375 0 45 56.896484375 45 127 c 2
 45 673 l 2
264.639648438 132.6796875 m 2
 289.0546875 132.6796875 308.870117188 152.495117188 308.870117188 176.91015625 c 2
 308.870117188 623.08984375 l 2
 308.870117188 647.504882812 289.0546875 667.3203125 264.639648438 667.3203125 c 2
 221.91015625 667.3203125 l 2
 197.495117188 667.3203125 177.6796875 647.504882812 177.6796875 623.08984375 c 2
 177.6796875 176.91015625 l 2
 177.6796875 152.495117188 197.495117188 132.6796875 221.91015625 132.6796875 c 2
 264.639648438 132.6796875 l 2
EndSplineSet
Validated: 1
EndChar

StartChar: P
Encoding: 80 80 15
Width: 490
VWidth: 0
Flags: W
HStem: 0 21G<53.688 168.972> 321.66 132.689<177.7 306.214> 667.35 132.65<177.7 306.214>
VStem: 45 132.66<0 321.66 454.35 667.35> 312.62 132.71<460.756 660.944>
LayerCount: 2
Fore
SplineSet
45 788 m 2
 45 794.624023438 50.3759765625 800 57 800 c 2
 318.330078125 800 l 2
 388.43359375 800 445.330078125 743.103515625 445.330078125 673 c 2
 445.330078125 448.66015625 l 2
 445.330078125 378.555664062 388.43359375 321.66015625 318.330078125 321.66015625 c 2
 177.66015625 321.66015625 l 1
 177.66015625 12 l 2
 177.66015625 5.3759765625 172.284179688 0 165.66015625 0 c 2
 57 0 l 2
 50.3759765625 0 45 5.3759765625 45 12 c 2
 45 788 l 2
268.389648438 454.349609375 m 2
 292.8046875 454.349609375 312.620117188 474.165039062 312.620117188 498.580078125 c 0
 312.620117188 498.583007812 312.620117188 498.586914062 312.620117188 498.58984375 c 2
 312.620117188 623.120117188 l 2
 312.620117188 647.53515625 292.8046875 667.349609375 268.389648438 667.349609375 c 2
 177.700195312 667.349609375 l 1
 177.700195312 454.349609375 l 1
 268.389648438 454.349609375 l 2
EndSplineSet
Validated: 1
EndChar

StartChar: Q
Encoding: 81 81 16
Width: 554
VWidth: 0
Flags: W
HStem: 0 132.68<184.105 302.444> 667.32 132.68<184.107 302.448>
VStem: 45 132.68<139.105 660.924> 308.87 132.63<139.105 660.924>
LayerCount: 2
Fore
SplineSet
511 24.41015625 m 2
 512.942382812 22.4697265625 514.51953125 18.666015625 514.51953125 15.919921875 c 0
 514.51953125 13.173828125 512.942382812 9.3701171875 511 7.4296875 c 2
 434.129882812 -69.419921875 l 2
 432.188476562 -71.3681640625 428.380859375 -72.94921875 425.629882812 -72.94921875 c 0
 422.879882812 -72.94921875 419.071289062 -71.3681640625 417.129882812 -69.419921875 c 2
 344.209960938 3.5 l 1
 336.24609375 1.5673828125 323.131835938 0 314.936523438 0 c 0
 314.84375 0 314.693359375 0 314.599609375 0 c 2
 171.950195312 0 l 2
 101.874023438 0.02734375 45 56.923828125 45 127 c 0
 45 127.013671875 45 127.036132812 45 127.049804688 c 2
 45 673.049804688 l 2
 45.02734375 743.098632812 101.901367188 799.97265625 171.950195312 800 c 2
 314.599609375 800 l 2
 384.62109375 799.9453125 441.47265625 743.071289062 441.5 673.049804688 c 2
 441.5 127.049804688 l 2
 441.5 126.963867188 441.5 126.82421875 441.5 126.737304688 c 0
 441.5 118.505859375 439.932617188 105.331054688 438 97.330078125 c 1
 511 24.41015625 l 2
177.6796875 176.940429688 m 2
 177.702148438 152.530273438 197.530273438 132.702148438 221.940429688 132.6796875 c 2
 264.610351562 132.6796875 l 2
 289.01953125 132.702148438 308.84765625 152.530273438 308.870117188 176.940429688 c 2
 308.870117188 623.16015625 l 2
 308.842773438 647.536132812 289.036132812 667.3203125 264.66015625 667.3203125 c 0
 264.646484375 667.3203125 264.624023438 667.3203125 264.610351562 667.3203125 c 2
 221.940429688 667.3203125 l 2
 221.928710938 667.3203125 221.911132812 667.3203125 221.900390625 667.3203125 c 0
 197.5234375 667.3203125 177.712890625 647.536132812 177.6796875 623.16015625 c 2
 177.6796875 176.940429688 l 2
EndSplineSet
Validated: 1
AlternateSubs2: "'aalt' Accedi a tutte le alternative in Latino lookup 0-1" Q_bis Q_tris Q_quater
EndChar

StartChar: R
Encoding: 82 82 17
Width: 491
VWidth: 0
Flags: W
HStem: 0 21G<53.688 168.972 322.292 438.203> 321.66 132.67<177.7 251.66> 667.3 132.7<177.7 306.21>
VStem: 45 132.66<0 321.66 454.33 667.3> 312.62 132.7<0 46.6729 460.742 660.884>
LayerCount: 2
Fore
SplineSet
383.3203125 339.599609375 m 1
 446.66015625 14.33984375 l 2
 446.787109375 13.7001953125 446.890625 12.65234375 446.890625 12 c 0
 446.890625 5.3759765625 441.514648438 0 434.890625 0 c 0
 434.87890625 0 434.861328125 0 434.849609375 0 c 2
 325.379882812 0 l 2
 319.203125 0.00390625 313.249023438 4.9326171875 312.08984375 11 c 2
 251.66015625 321.66015625 l 1
 177.66015625 321.66015625 l 1
 177.66015625 12 l 2
 177.66015625 5.3759765625 172.284179688 0 165.66015625 0 c 2
 57 0 l 2
 50.3759765625 0 45 5.3759765625 45 12 c 2
 45 788 l 2
 45 794.624023438 50.3759765625 800 57 800 c 2
 318.3203125 800 l 2
 388.423828125 800 445.3203125 743.103515625 445.3203125 673 c 2
 445.3203125 448.599609375 l 2
 445.3203125 448.586914062 445.3203125 448.565429688 445.3203125 448.551757812 c 0
 445.3203125 408.743164062 417.543945312 359.932617188 383.3203125 339.599609375 c 1
312.620117188 498.599609375 m 2
 312.620117188 623 l 2
 312.620117188 623.0078125 312.620117188 623.021484375 312.620117188 623.030273438 c 0
 312.620117188 647.461914062 292.791992188 667.294921875 268.360351562 667.299804688 c 2
 177.700195312 667.299804688 l 1
 177.700195312 454.330078125 l 1
 268.349609375 454.330078125 l 2
 292.787109375 454.330078125 312.620117188 474.163085938 312.620117188 498.599609375 c 2
EndSplineSet
Validated: 1
EndChar

StartChar: S
Encoding: 83 83 18
Width: 462
VWidth: 0
Flags: W
HStem: 0 132.66<181.4 278.44> 667.34 132.66<181.43 280.69>
VStem: 45 132.66<136.43 263.38 482.848 663.57> 282.21 134.88<136.43 316.477 536.62 664.688>
LayerCount: 2
Fore
SplineSet
417.08984375 284.639648438 m 2
 417.08984375 127 l 2
 417.08984375 56.896484375 360.194335938 0 290.08984375 0 c 2
 172 0 l 2
 101.896484375 0 45 56.896484375 45 127 c 2
 45 251.379882812 l 2
 45 258.00390625 50.3759765625 263.379882812 57 263.379882812 c 2
 165.629882812 263.379882812 l 2
 172.25390625 263.379882812 177.629882812 258.00390625 177.629882812 251.379882812 c 2
 177.629882812 170.870117188 l 2
 177.629882812 149.778320312 194.748046875 132.66015625 215.83984375 132.66015625 c 2
 244 132.66015625 l 1
 265.091796875 132.66015625 282.209960938 149.778320312 282.209960938 170.870117188 c 2
 282.209960938 284.639648438 l 2
 282.200195312 386.870117188 45 267.370117188 45 515.360351562 c 2
 45 673 l 2
 45 743.103515625 101.896484375 800 172 800 c 2
 290.139648438 800 l 2
 360.244140625 800 417.139648438 743.103515625 417.139648438 673 c 2
 417.139648438 548.620117188 l 2
 417.139648438 541.99609375 411.763671875 536.620117188 405.139648438 536.620117188 c 2
 296.459960938 536.620117188 l 2
 289.8359375 536.620117188 284.459960938 541.99609375 284.459960938 548.620117188 c 2
 284.459960938 629.129882812 l 2
 284.459960938 650.221679688 267.341796875 667.33984375 246.25 667.33984375 c 2
 215.870117188 667.33984375 l 1
 194.778320312 667.33984375 177.66015625 650.221679688 177.66015625 629.129882812 c 2
 177.66015625 515.360351562 l 2
 177.66015625 412.0703125 417.08984375 527.400390625 417.08984375 284.639648438 c 2
EndSplineSet
Validated: 1
AlternateSubs2: "'aalt' Accedi a tutte le alternative in Latino lookup 0-1" S_bis S_tris S_quater
EndChar

StartChar: T
Encoding: 84 84 19
Width: 451
VWidth: 0
Flags: W
HStem: 0 21G<168.348 283.542> 666.88 132.59<35 159.66 292.23 416.76>
VStem: 159.66 132.57<0 666.88>
LayerCount: 2
Fore
SplineSet
416.759765625 787 m 0
 416.759765625 679 l 2
 416.759765625 672.326171875 411.34375 666.91015625 404.669921875 666.91015625 c 2
 292.23046875 666.91015625 l 1
 292.23046875 12 l 2
 292.23046875 5.3759765625 286.853515625 0 280.23046875 0 c 2
 171.66015625 0 l 2
 165.036132812 0 159.66015625 5.3759765625 159.66015625 12 c 2
 159.66015625 666.879882812 l 1
 47.08984375 666.879882812 l 2
 40.416015625 666.879882812 35 672.295898438 35 678.969726562 c 0
 35 678.978515625 35 678.9921875 35 679 c 2
 35 788 l 2
 35 794.624023438 40.3759765625 800 47 800 c 0
 47.0244140625 800 47.0654296875 800 47.08984375 800 c 2
 244.599609375 799.469726562 l 1
 292.23046875 799.360351562 l 1
 404.76953125 799 l 2
 411.388671875 798.994140625 416.759765625 793.618164062 416.759765625 787 c 0
EndSplineSet
Validated: 1
EndChar

StartChar: U
Encoding: 85 85 20
Width: 486
VWidth: 0
Flags: W
HStem: 0 132.68<184.046 302.424> 780 20G<53.688 168.952 317.518 432.862>
VStem: 45 132.64<139.086 800> 308.83 132.72<139.086 800>
LayerCount: 2
Fore
SplineSet
441.549804688 788 m 0
 441.549804688 127 l 2
 441.549804688 56.896484375 384.654296875 0 314.549804688 0 c 2
 172 0 l 2
 101.896484375 0 45 56.896484375 45 127 c 2
 45 788 l 2
 45 794.624023438 50.3759765625 800 57 800 c 2
 165.639648438 800 l 2
 172.263671875 800 177.639648438 794.624023438 177.639648438 788 c 2
 177.639648438 176.91015625 l 2
 177.639648438 152.495117188 197.455078125 132.6796875 221.870117188 132.6796875 c 2
 264.599609375 132.6796875 l 2
 289.014648438 132.6796875 308.830078125 152.495117188 308.830078125 176.91015625 c 2
 308.830078125 788 l 2
 308.830078125 794.624023438 314.206054688 800 320.830078125 800 c 2
 429.509765625 800 l 2
 429.521484375 800 429.5390625 800 429.549804688 800 c 0
 436.173828125 800 441.549804688 794.624023438 441.549804688 788 c 0
EndSplineSet
Validated: 1
EndChar

StartChar: V
Encoding: 86 86 21
Width: 565
VWidth: 0
Flags: W
HStem: 0 21G<201.305 364.622> 780 20G<47.6187 164.892 401.044 518.313>
LayerCount: 2
Fore
SplineSet
361.533203125 0 m 2
 204.393554688 0 l 2
 198.215820312 0.00390625 192.26171875 4.9326171875 191.103515625 11 c 2
 40.193359375 787.459960938 l 2
 40.0859375 788.009765625 40 788.91015625 40 789.469726562 c 0
 40 795.279296875 44.7138671875 799.99609375 50.5234375 800 c 2
 161.802734375 800 l 2
 167.98046875 799.99609375 173.934570312 795.067382812 175.092773438 789 c 2
 282.993164062 233.799804688 l 1
 390.842773438 789 l 2
 392.001953125 795.067382812 397.956054688 799.99609375 404.1328125 800 c 2
 515.403320312 800 l 2
 515.404296875 800 515.40625 800 515.407226562 800 c 0
 521.219726562 800 525.936523438 795.282226562 525.936523438 789.469726562 c 0
 525.936523438 788.91015625 525.849609375 788.009765625 525.743164062 787.459960938 c 2
 374.823242188 11 l 2
 373.6640625 4.9326171875 367.709960938 0.00390625 361.533203125 0 c 2
EndSplineSet
Validated: 1
EndChar

StartChar: W
Encoding: 87 87 22
Width: 797
VWidth: 0
Flags: W
HStem: 0 21G<185.905 321.153 476.668 611.886> 780 20G<47.2637 164.549 353.096 444.698 633.344 749.734>
VStem: 342.887 112.021<753.626 800>
LayerCount: 2
Fore
SplineSet
50.52734375 800 m 2
 161.407226562 800 l 2
 167.690429688 800 173.666015625 794.977539062 174.747070312 788.790039062 c 2
 253.657226562 336.790039062 l 1
 342.88671875 789.080078125 l 2
 344.075195312 795.106445312 350.025390625 799.998046875 356.166992188 800 c 2
 441.626953125 800 l 2
 447.76953125 799.998046875 453.71875 795.106445312 454.907226562 789.080078125 c 2
 544.237304688 336.639648438 l 1
 623.147460938 788.790039062 l 2
 624.228515625 794.977539062 630.203125 800 636.485351562 800 c 2
 747.256835938 800 l 2
 752.210600261 800 758.911027517 795.015532487 757.626953125 787.66015625 c 2
 622.077148438 11.2099609375 l 2
 620.997070312 5.025390625 615.025390625 0.00390625 608.747070312 0 c 2
 479.836914062 0 l 2
 473.499023438 0 467.515625 5.0712890625 466.477539062 11.3203125 c 2
 398.947265625 418.889648438 l 1
 331.306640625 11.3203125 l 2
 330.272460938 5.0927734375 324.309570312 0.021484375 317.997070312 0 c 2
 189.046875 0 l 2
 182.763671875 0 176.788085938 5.0224609375 175.70703125 11.2099609375 c 2
 40.1572265625 787.66015625 l 2
 39.304333617 792.544090591 44 800 50.52734375 800 c 2
EndSplineSet
Validated: 1
AlternateSubs2: "'aalt' Accedi a tutte le alternative in Latino lookup 0-1" W_bis
EndChar

StartChar: X
Encoding: 88 88 23
Width: 558
VWidth: 0
Flags: W
HStem: 0 21G<47.6309 171.688 387.025 511.14> 780 20G<66.8408 191.028 367.828 491.899>
LayerCount: 2
Fore
SplineSet
508.209960938 0 m 2
 389.580078125 0 l 2
 389.569335938 0 389.55078125 0 389.540039062 0 c 0
 384.509765625 0 378.887695312 3.78125 376.990234375 8.4404296875 c 2
 279.390625 247.870117188 l 1
 181.690429688 8.4404296875 l 2
 179.798828125 3.7958984375 174.194335938 0.0146484375 169.180664062 0 c 2
 50.5400390625 0 l 2
 44.7216796875 0 40 4.7216796875 40 10.5400390625 c 0
 40 11.6806640625 40.349609375 13.4638671875 40.7802734375 14.51953125 c 2
 207.610351562 423.690429688 l 1
 59.990234375 785.48046875 l 2
 59.5595703125 786.536132812 59.2099609375 788.319335938 59.2099609375 789.459960938 c 0
 59.2099609375 795.278320312 63.931640625 800 69.75 800 c 0
 69.755859375 800 69.7646484375 800 69.7705078125 800 c 2
 188.509765625 800 l 2
 188.51171875 800 188.513671875 800 188.514648438 800 c 0
 193.541015625 800 199.161132812 796.223632812 201.060546875 791.5703125 c 2
 279.430664062 599.5703125 l 1
 357.799804688 791.5703125 l 2
 359.698242188 796.221679688 365.31640625 799.998046875 370.33984375 800 c 2
 488.990234375 800 l 2
 494.80859375 800 499.530273438 795.278320312 499.530273438 789.459960938 c 0
 499.530273438 788.319335938 499.180664062 786.536132812 498.75 785.48046875 c 2
 351.140625 423.690429688 l 1
 517.990234375 14.51953125 l 2
 518.420898438 13.4638671875 518.770507812 11.6806640625 518.770507812 10.5400390625 c 0
 518.770507812 4.7216796875 514.048828125 0 508.23046875 0 c 0
 508.224609375 0 508.215820312 0 508.209960938 0 c 2
EndSplineSet
Validated: 1
EndChar

StartChar: Y
Encoding: 89 89 24
Width: 543
VWidth: 0
Flags: W
HStem: 0 21G<214.349 329.553> 780 20G<47.624 171.655 372.257 496.168>
VStem: 205.661 132.58<0 381.43>
LayerCount: 2
Fore
SplineSet
374.771484375 800 m 2
 493.271484375 800 l 2
 499.065429688 799.981445312 503.768554688 795.264648438 503.768554688 789.469726562 c 0
 503.768554688 788.33203125 503.419921875 786.553710938 502.991210938 785.5 c 2
 343.55078125 394.5 l 1
 338.241210938 381.66015625 l 1
 338.241210938 12 l 2
 338.241210938 5.3759765625 332.865234375 0 326.241210938 0 c 2
 217.661132812 0 l 2
 211.037109375 0 205.661132812 5.3759765625 205.661132812 12 c 2
 205.661132812 381.4296875 l 1
 200.3515625 394.48046875 l 1
 40.78125 785.490234375 l 2
 40.349609375 786.545898438 40 788.329101562 40 789.469726562 c 0
 40 795.282226562 44.7177734375 800 50.5302734375 800 c 0
 50.53125 800 l 2
 169.141601562 800 l 2
 169.142578125 800 l 0
 174.166992188 800 179.78515625 796.223632812 181.681640625 791.5703125 c 2
 271.991210938 559.509765625 l 1
 362.231445312 791.5703125 l 2
 364.127929688 796.223632812 369.745117188 800 374.76953125 800 c 0
 374.770507812 800 374.770507812 800 374.771484375 800 c 2
EndSplineSet
Validated: 1
EndChar

StartChar: Z
Encoding: 90 90 25
Width: 503
VWidth: 0
Flags: W
HStem: 0 144.27<205.28 458.28> 667.5 132.5<62.2803 298>
LayerCount: 2
Fore
SplineSet
458.309570312 788 m 0
 458.309570312 675.759765625 l 2
 458.309570312 671.19921875 456.696289062 664.166015625 454.709960938 660.059570312 c 2
 205.280273438 144.26953125 l 1
 446.280273438 144.26953125 l 2
 452.904296875 144.26953125 458.280273438 138.893554688 458.280273438 132.26953125 c 2
 458.280273438 12 l 2
 458.280273438 5.3759765625 452.904296875 0 446.280273438 0 c 2
 57 0 l 2
 50.3759765625 0 45 5.3759765625 45 12 c 2
 45 136 l 2
 45.0009765625 140.560546875 46.61328125 147.594726562 48.599609375 151.700195312 c 2
 298 667.5 l 1
 74.2802734375 667.5 l 2
 67.65625 667.5 62.2802734375 672.875976562 62.2802734375 679.5 c 2
 62.2802734375 788 l 2
 62.2802734375 794.624023438 67.65625 800 74.2802734375 800 c 2
 446.280273438 800 l 2
 446.288085938 800 446.301757812 800 446.309570312 800 c 0
 452.93359375 800 458.309570312 794.624023438 458.309570312 788 c 0
EndSplineSet
Validated: 1
EndChar

StartChar: period
Encoding: 46 46 26
Width: 222
VWidth: 0
Flags: W
HStem: 0 132.54<45 177.5>
VStem: 45 132.5<0 132.54>
LayerCount: 2
Fore
SplineSet
45 120.51953125 m 2
 45 132.540039062 45 132.540039062 57.01953125 132.540039062 c 2
 165.48046875 132.540039062 l 2
 177.5 132.540039062 177.5 132.540039062 177.5 120.51953125 c 2
 177.5 12.01953125 l 2
 177.5 0 177.5 0 165.48046875 0 c 2
 57.01953125 0 l 2
 45 0 45 0 45 12.01953125 c 2
 45 120.51953125 l 2
EndSplineSet
Validated: 1
EndChar

StartChar: question
Encoding: 63 63 28
Width: 494
VWidth: 0
Flags: W
HStem: 0 141.83<158.15 299.94> 677.94 122.06<167 327.42>
VStem: 45 122<556.24 677.94> 158.15 141.79<0 141.83> 167.09 122<239.24 346.91> 327.42 122.03<469 677.94>
LayerCount: 2
Fore
SplineSet
437.450195312 800 m 2xec
 444.07421875 800 449.450195312 794.624023438 449.450195312 788 c 2
 449.450195312 358.91015625 l 2
 449.450195312 352.286132812 444.07421875 346.91015625 437.450195312 346.91015625 c 2
 289.08984375 346.91015625 l 1
 289.08984375 251.240234375 l 2
 289.08984375 244.616210938 283.713867188 239.240234375 277.08984375 239.240234375 c 2
 179.08984375 239.240234375 l 2
 172.465820312 239.240234375 167.08984375 244.616210938 167.08984375 251.240234375 c 2
 167.08984375 457 l 2
 167.08984375 463.624023438 172.465820312 469 179.08984375 469 c 2
 327.419921875 469 l 1
 327.419921875 677.940429688 l 1
 167 677.940429688 l 1
 167 568.240234375 l 2
 167 561.616210938 161.624023438 556.240234375 155 556.240234375 c 2
 57 556.240234375 l 2
 50.3759765625 556.240234375 45 561.616210938 45 568.240234375 c 2
 45 788 l 2
 45 794.624023438 50.3759765625 800 57 800 c 2
 437.450195312 800 l 2xec
158.150390625 128.969726562 m 2xd4
 158.150390625 141.830078125 158.150390625 141.830078125 171.009765625 141.830078125 c 2
 287.080078125 141.830078125 l 2
 299.940429688 141.830078125 299.940429688 141.830078125 299.940429688 128.969726562 c 2
 299.940429688 12.8603515625 l 2
 299.940429688 0 299.940429688 0 287.080078125 0 c 2
 171.009765625 0 l 2
 158.150390625 0 158.150390625 0 158.150390625 12.8603515625 c 2
 158.150390625 128.969726562 l 2xd4
EndSplineSet
Validated: 1
EndChar

StartChar: exclam
Encoding: 33 33 29
Width: 231
VWidth: 0
Flags: W
HStem: 0 141.83<45 186.79> 780 20G<58.2778 173.502>
VStem: 49.5898 132.601<0 141.83 240.6 800>
LayerCount: 2
Fore
SplineSet
61.58984375 800 m 2
 170.190429688 800 l 2
 176.814453125 800 182.190429688 794.624023438 182.190429688 788 c 2
 182.190429688 252.599609375 l 2
 182.190429688 245.975585938 176.814453125 240.599609375 170.190429688 240.599609375 c 2
 61.58984375 240.599609375 l 2
 54.9658203125 240.599609375 49.58984375 245.975585938 49.58984375 252.599609375 c 2
 49.58984375 788 l 2
 49.58984375 794.624023438 54.9658203125 800 61.58984375 800 c 2
45 128.969726562 m 2
 45 141.830078125 45 141.830078125 57.8603515625 141.830078125 c 2
 173.9296875 141.830078125 l 2
 186.790039062 141.830078125 186.790039062 141.830078125 186.790039062 128.969726562 c 2
 186.790039062 12.8603515625 l 2
 186.790039062 0 186.790039062 0 173.9296875 0 c 2
 57.8603515625 0 l 2
 45 0 45 0 45 12.8603515625 c 2
 45 128.969726562 l 2
EndSplineSet
Validated: 1
EndChar

StartChar: comma
Encoding: 44 44 30
Width: 222
VWidth: 0
Flags: W
HStem: -0.0800781 132.61<45 107.884>
VStem: 45 132.5<0.0207861 132.53> 107.885 69.6152<-22.2046 -0.0800782>
LayerCount: 2
Fore
SplineSet
177.5 120.459960938 m 2xc0
 177.5 6.4599609375 l 2
 177.5 6.4580078125 177.5 6.455078125 177.5 6.453125 c 0xc0
 177.5 2.8759765625 175.649414062 -2.263671875 173.370117188 -5.01953125 c 2
 106.059570312 -73.759765625 l 2
 103.079101562 -77.3759765625 96.857421875 -80.3095703125 92.1708984375 -80.3095703125 c 0
 92.16796875 -80.3095703125 92.1630859375 -80.3095703125 92.16015625 -80.3095703125 c 2
 57.75 -80.3095703125 l 2
 57.744140625 -80.3095703125 57.7353515625 -80.3095703125 57.73046875 -80.3095703125 c 0
 54.41796875 -80.3095703125 51.73046875 -77.6220703125 51.73046875 -74.3095703125 c 0
 51.73046875 -73.111328125 52.3525390625 -71.390625 53.1201171875 -70.4697265625 c 2
 107.190429688 -5 l 2
 107.573242188 -4.5390625 107.884765625 -3.6796875 107.884765625 -3.080078125 c 0xa0
 107.884765625 -1.423828125 106.541015625 -0.080078125 104.884765625 -0.080078125 c 0
 104.880859375 -0.080078125 104.874023438 -0.080078125 104.870117188 -0.080078125 c 2
 57 -0.080078125 l 2
 50.3759765625 -0.080078125 45 5.2958984375 45 11.919921875 c 2
 45 120.450195312 l 2
 45 127.118164062 50.412109375 132.530273438 57.080078125 132.530273438 c 2
 165.419921875 132.530273438 l 2
 172.083007812 132.530273438 177.494140625 127.123046875 177.5 120.459960938 c 2xc0
EndSplineSet
Validated: 1
EndChar

StartChar: uni00AD
Encoding: 173 173 31
Width: 355
VWidth: 0
Flags: W
HStem: 204.22 132.54<45 310.07>
VStem: 45 265.07<204.22 336.76>
LayerCount: 2
Fore
SplineSet
45 324.740234375 m 2
 45 336.759765625 45 336.759765625 57.01953125 336.759765625 c 2
 298.049804688 336.759765625 l 2
 310.0703125 336.759765625 310.0703125 336.759765625 310.0703125 324.740234375 c 2
 310.0703125 216.240234375 l 2
 310.0703125 204.219726562 310.0703125 204.219726562 298.049804688 204.219726562 c 2
 57.01953125 204.219726562 l 2
 45 204.219726562 45 204.219726562 45 216.240234375 c 2
 45 324.740234375 l 2
EndSplineSet
Validated: 1
EndChar

StartChar: hyphen
Encoding: 45 45 32
Width: 630
VWidth: 0
Flags: W
HStem: 204.22 132.54<45 585.98>
LayerCount: 2
Fore
SplineSet
45 324.740234375 m 2
 45 336.759765625 45 336.759765625 57.01953125 336.759765625 c 2
 573.959960938 336.759765625 l 2
 585.98046875 336.759765625 585.98046875 336.759765625 585.98046875 324.740234375 c 2
 585.98046875 216.240234375 l 2
 585.98046875 204.219726562 585.98046875 204.219726562 573.959960938 204.219726562 c 2
 57.01953125 204.219726562 l 2
 45 204.219726562 45 204.219726562 45 216.240234375 c 2
 45 324.740234375 l 2
EndSplineSet
Validated: 1
EndChar

StartChar: plus
Encoding: 43 43 33
Width: 631
VWidth: 0
Flags: W
HStem: 0 21G<257.888 373.042> 204.24 132.56<45 249.2 381.76 586>
VStem: 249.2 132.53<0 204.22 336.8 541>
LayerCount: 2
Fore
SplineSet
574 336.759765625 m 2
 580.624023438 336.759765625 586 331.383789062 586 324.759765625 c 0
 586 324.751953125 586 324.73828125 586 324.73046875 c 2
 586 216.219726562 l 2
 586 209.595703125 580.624023438 204.219726562 574 204.219726562 c 2
 381.73046875 204.219726562 l 1
 381.73046875 12 l 2
 381.73046875 5.3759765625 376.353515625 0 369.73046875 0 c 2
 261.200195312 0 l 2
 254.576171875 0 249.200195312 5.3759765625 249.200195312 12 c 2
 249.200195312 204.240234375 l 1
 57 204.240234375 l 2
 50.3759765625 204.240234375 45 209.616210938 45 216.240234375 c 2
 45 324.799804688 l 2
 45 331.423828125 50.3759765625 336.799804688 57 336.799804688 c 2
 249.240234375 336.799804688 l 1
 249.240234375 529 l 2
 249.240234375 535.624023438 254.616210938 541 261.240234375 541 c 2
 369.759765625 541 l 2
 376.383789062 541 381.759765625 535.624023438 381.759765625 529 c 2
 381.759765625 336.759765625 l 1
 574 336.759765625 l 2
EndSplineSet
Validated: 1
EndChar

StartChar: semicolon
Encoding: 59 59 34
Width: 221
VWidth: 0
Flags: W
HStem: 1.25 131.29<45 107.224> 352.16 131.229<45 176.19>
VStem: 45 131.2<1.28165 132.54 352.16 483.39> 107.225 68.9756<-21.7725 1.24999>
LayerCount: 2
Fore
SplineSet
45 471.490234375 m 2xe0
 45 483.389648438 45 483.389648438 56.900390625 483.389648438 c 2
 164.290039062 483.389648438 l 2
 176.190429688 483.389648438 176.190429688 483.389648438 176.190429688 471.490234375 c 2
 176.190429688 364.059570312 l 2
 176.190429688 352.16015625 176.190429688 352.16015625 164.290039062 352.16015625 c 2
 56.900390625 352.16015625 l 2
 45 352.16015625 45 352.16015625 45 364.059570312 c 2
 45 471.490234375 l 2xe0
164.23046875 132.540039062 m 2
 170.815429688 132.5234375 176.177734375 127.165039062 176.200195312 120.580078125 c 2
 176.200195312 7.650390625 l 2xe0
 176.198242188 4.109375 174.365234375 -0.98046875 172.110351562 -3.7099609375 c 2
 105.459960938 -71.7099609375 l 2
 102.50390625 -75.2919921875 96.3359375 -78.2001953125 91.69140625 -78.2001953125 c 0
 91.6904296875 -78.2001953125 l 2
 57.58984375 -78.2001953125 l 2
 54.333984375 -78.1455078125 51.69140625 -75.4580078125 51.69140625 -72.201171875 c 0
 51.69140625 -71.0419921875 52.27734375 -69.3662109375 53 -68.4599609375 c 2
 106.5703125 -3.6201171875 l 2
 106.931640625 -3.1669921875 107.224609375 -2.3291015625 107.224609375 -1.7490234375 c 0xd0
 107.224609375 -0.1240234375 105.905273438 1.2197265625 104.280273438 1.25 c 2
 56.8603515625 1.25 l 2
 50.3134765625 1.25 45 6.5634765625 45 13.1103515625 c 2
 45 120.540039062 l 2
 45 127.1640625 50.3759765625 132.540039062 57 132.540039062 c 2
 164.23046875 132.540039062 l 2
EndSplineSet
Validated: 1
EndChar

StartChar: colon
Encoding: 58 58 35
Width: 221
VWidth: 0
Flags: W
HStem: 1.30957 131.23<45 176.19> 352.16 131.229<45 176.19>
VStem: 45 131.19<1.30957 132.54 352.16 483.39>
LayerCount: 2
Fore
SplineSet
45 471.490234375 m 2
 45 483.389648438 45 483.389648438 56.900390625 483.389648438 c 2
 164.290039062 483.389648438 l 2
 176.190429688 483.389648438 176.190429688 483.389648438 176.190429688 471.490234375 c 2
 176.190429688 364.059570312 l 2
 176.190429688 352.16015625 176.190429688 352.16015625 164.290039062 352.16015625 c 2
 56.900390625 352.16015625 l 2
 45 352.16015625 45 352.16015625 45 364.059570312 c 2
 45 471.490234375 l 2
45 120.639648438 m 2
 45 132.540039062 45 132.540039062 56.900390625 132.540039062 c 2
 164.290039062 132.540039062 l 2
 176.190429688 132.540039062 176.190429688 132.540039062 176.190429688 120.639648438 c 2
 176.190429688 13.2099609375 l 2
 176.190429688 1.3095703125 176.190429688 1.3095703125 164.290039062 1.3095703125 c 2
 56.900390625 1.3095703125 l 2
 45 1.3095703125 45 1.3095703125 45 13.2099609375 c 2
 45 120.639648438 l 2
EndSplineSet
Validated: 1
EndChar

StartChar: quotesingle
Encoding: 39 39 36
Width: 222
VWidth: 0
Flags: W
HStem: 667.41 132.59<45 107.884>
VStem: 45 132.5<667.481 800> 107.885 69.6152<645.258 667.41>
LayerCount: 2
Fore
SplineSet
177.5 787.919921875 m 2xc0
 177.5 673.919921875 l 2
 177.5 673.91796875 177.5 673.915039062 177.5 673.913085938 c 0xc0
 177.5 670.3359375 175.649414062 665.196289062 173.370117188 662.440429688 c 2
 106.059570312 593.709960938 l 2
 103.079101562 590.094726562 96.857421875 587.16015625 92.1708984375 587.16015625 c 0
 92.16796875 587.16015625 92.1630859375 587.16015625 92.16015625 587.16015625 c 2
 57.75 587.16015625 l 2
 57.744140625 587.16015625 57.7353515625 587.16015625 57.73046875 587.16015625 c 0
 54.41796875 587.16015625 51.73046875 589.84765625 51.73046875 593.16015625 c 0
 51.73046875 594.358398438 52.3525390625 596.079101562 53.1201171875 597 c 2
 107.190429688 662.490234375 l 2
 107.573242188 662.950195312 107.884765625 663.810546875 107.884765625 664.41015625 c 0xa0
 107.884765625 666.06640625 106.541015625 667.41015625 104.884765625 667.41015625 c 0
 104.880859375 667.41015625 104.874023438 667.41015625 104.870117188 667.41015625 c 2
 57 667.41015625 l 2
 50.3759765625 667.41015625 45 672.786132812 45 679.41015625 c 2
 45 787.919921875 l 2
 45 794.587890625 50.412109375 800 57.080078125 800 c 2
 165.419921875 800 l 2
 172.087890625 800 177.5 794.587890625 177.5 787.919921875 c 2xc0
EndSplineSet
Validated: 1
EndChar

StartChar: quotedbl
Encoding: 34 34 37
Width: 379
VWidth: 0
Flags: W
HStem: 587.16 132.62<114.616 177.49 296.166 359.08> 780 20G<127.986 166.426 309.546 347.986>
VStem: 45 132.49<587.16 719.719> 45 69.6152<719.78 741.932> 226.55 132.53<587.16 719.719> 226.55 69.6152<719.78 741.932>
LayerCount: 2
Fore
SplineSet
238.639648438 587.16015625 m 2xc8
 238.637695312 587.16015625 238.6328125 587.16015625 238.629882812 587.16015625 c 0
 231.961914062 587.16015625 226.549804688 592.572265625 226.549804688 599.240234375 c 0
 226.549804688 599.250976562 226.549804688 599.268554688 226.549804688 599.280273438 c 2
 226.549804688 713.280273438 l 2
 226.549804688 713.282226562 226.549804688 713.28515625 226.549804688 713.287109375 c 0xc8
 226.549804688 716.864257812 228.400390625 722.00390625 230.6796875 724.759765625 c 2
 298 793.450195312 l 2
 300.98046875 797.065429688 307.203125 800 311.888671875 800 c 0
 311.891601562 800 311.896484375 800 311.900390625 800 c 2
 346.299804688 800 l 2
 346.30859375 800 346.321289062 800 346.330078125 800 c 0
 349.641601562 800 352.330078125 797.3125 352.330078125 794 c 0
 352.330078125 792.801757812 351.70703125 791.081054688 350.940429688 790.16015625 c 2
 296.860351562 724.700195312 l 2
 296.4765625 724.239257812 296.165039062 723.37890625 296.165039062 722.780273438 c 0xc4
 296.165039062 721.124023438 297.508789062 719.780273438 299.165039062 719.780273438 c 0
 299.168945312 719.780273438 299.17578125 719.780273438 299.1796875 719.780273438 c 2
 347.080078125 719.780273438 l 2
 353.704101562 719.780273438 359.080078125 714.404296875 359.080078125 707.780273438 c 2
 359.080078125 599.240234375 l 2
 359.080078125 592.572265625 353.66796875 587.16015625 347 587.16015625 c 2
 238.639648438 587.16015625 l 2xc8
57.080078125 587.16015625 m 2
 50.412109375 587.16015625 45 592.572265625 45 599.240234375 c 0
 45 599.250976562 45 599.268554688 45 599.280273438 c 2
 45 713.280273438 l 2
 45 713.282226562 45 713.28515625 45 713.287109375 c 0xe0
 45 716.864257812 46.8505859375 722.00390625 49.1298828125 724.759765625 c 2
 116.440429688 793.450195312 l 2
 119.420898438 797.065429688 125.642578125 800 130.329101562 800 c 0
 130.33203125 800 130.336914062 800 130.33984375 800 c 2
 164.740234375 800 l 2
 164.748046875 800 164.76171875 800 164.76953125 800 c 0
 168.08203125 800 170.76953125 797.3125 170.76953125 794 c 0
 170.76953125 792.801757812 170.147460938 791.081054688 169.379882812 790.16015625 c 2
 115.309570312 724.700195312 l 2
 114.926757812 724.239257812 114.615234375 723.37890625 114.615234375 722.780273438 c 0xd0
 114.615234375 721.124023438 115.958984375 719.780273438 117.615234375 719.780273438 c 0
 117.619140625 719.780273438 117.625976562 719.780273438 117.629882812 719.780273438 c 2
 165.490234375 719.780273438 l 2
 172.114257812 719.780273438 177.490234375 714.404296875 177.490234375 707.780273438 c 2
 177.490234375 599.240234375 l 2xe0
 177.490234375 592.572265625 172.078125 587.16015625 165.41015625 587.16015625 c 2
 57.080078125 587.16015625 l 2
EndSplineSet
Validated: 1
EndChar

StartChar: slash
Encoding: 47 47 38
Width: 503
VWidth: 0
Flags: W
LayerCount: 2
Fore
SplineSet
150.659179688 -50.8896484375 m 2
 147.999023438 -58.1103515625 141.649414062 -62.419921875 136.418945312 -60.509765625 c 2
 50.859375 -29.3701171875 l 2
 45.619140625 -27.4599609375 43.4990234375 -20.0703125 46.12890625 -12.849609375 c 2
 352.758789062 829.599609375 l 2
 355.388671875 836.809570312 361.758789062 841.120117188 366.999023438 839.209960938 c 2
 452.548828125 808.0703125 l 2
 457.7890625 806.16015625 459.909179688 798.76953125 457.279296875 791.549804688 c 2
 150.659179688 -50.8896484375 l 2
EndSplineSet
Validated: 1
EndChar

StartChar: underscore
Encoding: 95 95 39
Width: 780
VWidth: 0
Flags: W
HStem: -111.23 111.23<45 735.8>
LayerCount: 2
Fore
SplineSet
58.900390625 -111.23046875 m 2
 51.2197265625 -111.23046875 45 -106.709960938 45 -101.139648438 c 2
 45 -10.08984375 l 2
 45 -4.51953125 51.2197265625 0 58.900390625 0 c 2
 721.900390625 0 l 2
 729.580078125 0 735.799804688 -4.51953125 735.799804688 -10.08984375 c 2
 735.799804688 -101.139648438 l 2
 735.799804688 -106.709960938 729.580078125 -111.23046875 721.900390625 -111.23046875 c 2
 58.900390625 -111.23046875 l 2
EndSplineSet
Validated: 1
EndChar

StartChar: asterisk
Encoding: 42 42 40
Width: 408
VWidth: 0
Flags: W
HStem: 648.58 78.5967<59.3091 74.8725 333.5 349.032> 780 20G<171.875 236.499>
VStem: 163.187 82<699.16 800>
LayerCount: 2
Fore
SplineSet
362.737304688 663.740234375 m 2
 363.06640625 662.735351562 363.333007812 661.061523438 363.333007812 660.00390625 c 0
 363.333007812 655.17578125 359.602539062 650.057617188 355.006835938 648.580078125 c 2
 270.516601562 621.080078125 l 1
 322.737304688 549.209960938 l 2
 324.013671875 547.463867188 325.049804688 544.291015625 325.049804688 542.126953125 c 0
 325.049804688 538.741210938 322.822265625 534.3828125 320.077148438 532.400390625 c 2
 273.197265625 498.33984375 l 2
 271.450195312 497.063476562 268.27734375 496.02734375 266.114257812 496.02734375 c 0
 262.727539062 496.02734375 258.370117188 498.254882812 256.38671875 501 c 2
 204.176757812 572.870117188 l 1
 151.95703125 501 l 2
 149.973632812 498.266601562 145.622070312 496.047851562 142.245117188 496.047851562 c 0
 140.072265625 496.047851562 136.887695312 497.092773438 135.13671875 498.379882812 c 2
 88.2568359375 532.440429688 l 2
 85.51171875 534.422851562 83.2841796875 538.78125 83.2841796875 542.166992188 c 0
 83.2841796875 544.331054688 84.3203125 547.50390625 85.5966796875 549.25 c 2
 137.81640625 621.129882812 l 1
 53.3271484375 648.580078125 l 2
 48.73046875 650.057617188 45 655.17578125 45 660.00390625 c 0
 45 661.061523438 45.267578125 662.735351562 45.5966796875 663.740234375 c 2
 63.5068359375 718.849609375 l 2
 64.984375 723.446289062 70.1025390625 727.176757812 74.9306640625 727.176757812 c 0
 75.98828125 727.176757812 77.662109375 726.909179688 78.6669921875 726.580078125 c 2
 163.186523438 699.16015625 l 1
 163.186523438 788 l 2
 163.186523438 794.624023438 168.5625 800 175.186523438 800 c 2
 233.186523438 800 l 2
 239.810546875 800 245.186523438 794.624023438 245.186523438 788 c 2
 245.186523438 699.129882812 l 1
 329.676757812 726.580078125 l 2
 330.681640625 726.909179688 332.35546875 727.176757812 333.413085938 727.176757812 c 0
 338.241210938 727.176757812 343.358398438 723.446289062 344.836914062 718.849609375 c 2
 362.737304688 663.740234375 l 2
EndSplineSet
Validated: 1
EndChar

StartChar: quotedblright
Encoding: 256 8221 41
Width: 379
VWidth: 0
Flags: W
HStem: 667.38 132.62<20 82.8838 201.56 264.464>
VStem: 20 132.5<667.441 800> 82.8848 69.6152<645.228 667.38> 201.56 132.49<667.441 800> 264.465 69.585<645.228 667.38>
LayerCount: 2
Fore
SplineSet
140.419921875 800 m 2xc0
 147.087890625 800 152.5 794.587890625 152.5 787.919921875 c 0
 152.5 787.909179688 152.5 787.890625 152.5 787.879882812 c 2
 152.5 673.879882812 l 2
 152.5 673.877929688 152.5 673.875 152.5 673.873046875 c 0xc0
 152.5 670.295898438 150.649414062 665.15625 148.370117188 662.400390625 c 2
 81.0498046875 593.709960938 l 2
 78.0693359375 590.094726562 71.8466796875 587.16015625 67.1611328125 587.16015625 c 0
 67.158203125 587.16015625 67.1533203125 587.16015625 67.150390625 587.16015625 c 2
 32.75 587.16015625 l 2
 32.744140625 587.16015625 32.7353515625 587.16015625 32.73046875 587.16015625 c 0
 29.41796875 587.16015625 26.73046875 589.84765625 26.73046875 593.16015625 c 0
 26.73046875 594.358398438 27.3525390625 596.079101562 28.1201171875 597 c 2
 82.1904296875 662.459960938 l 2
 82.5732421875 662.920898438 82.884765625 663.780273438 82.884765625 664.379882812 c 0xa0
 82.884765625 666.036132812 81.541015625 667.379882812 79.884765625 667.379882812 c 0
 79.880859375 667.379882812 79.8740234375 667.379882812 79.8701171875 667.379882812 c 2
 32 667.379882812 l 2
 25.3759765625 667.379882812 20 672.755859375 20 679.379882812 c 2
 20 787.919921875 l 2
 20 794.587890625 25.412109375 800 32.080078125 800 c 2
 140.419921875 800 l 2xc0
322 800 m 2
 328.651367188 799.983398438 334.049804688 794.571289062 334.049804688 787.919921875 c 0
 334.049804688 787.909179688 334.049804688 787.890625 334.049804688 787.879882812 c 2
 334.049804688 673.879882812 l 2
 334.049804688 673.877929688 334.049804688 673.875 334.049804688 673.873046875 c 0x90
 334.049804688 670.295898438 332.200195312 665.15625 329.919921875 662.400390625 c 2
 262.610351562 593.709960938 l 2
 259.62890625 590.094726562 253.407226562 587.16015625 248.721679688 587.16015625 c 0
 248.717773438 587.16015625 248.712890625 587.16015625 248.709960938 587.16015625 c 2
 214.309570312 587.16015625 l 2
 214.3046875 587.16015625 214.295898438 587.16015625 214.290039062 587.16015625 c 0
 210.978515625 587.16015625 208.290039062 589.84765625 208.290039062 593.16015625 c 0
 208.290039062 594.358398438 208.913085938 596.079101562 209.6796875 597 c 2
 263.76953125 662.459960938 l 2
 264.153320312 662.920898438 264.46484375 663.780273438 264.46484375 664.379882812 c 0x88
 264.46484375 666.036132812 263.12109375 667.379882812 261.46484375 667.379882812 c 0
 261.4609375 667.379882812 261.454101562 667.379882812 261.450195312 667.379882812 c 2
 213.559570312 667.379882812 l 2
 206.935546875 667.379882812 201.559570312 672.755859375 201.559570312 679.379882812 c 2
 201.559570312 787.919921875 l 2x90
 201.559570312 794.587890625 206.971679688 800 213.639648438 800 c 1
 322 800 l 2
EndSplineSet
Validated: 1
EndChar

StartChar: A_bis
Encoding: 257 -1 42
Width: 508
VWidth: 0
Flags: W
HStem: 0 21G<36.6846 152.743 355.367 471.414> 135.47 132.721<210.205 297.905> 780 20G<167.558 340.666>
LayerCount: 2
Fore
SplineSet
479.995117188 13.7998046875 m 2
 480.063476562 13.3251953125 480.120117188 12.5498046875 480.120117188 12.0703125 c 0
 480.120117188 5.4326171875 474.732421875 0.025390625 468.094726562 0 c 2
 358.205078125 0 l 2
 352.529296875 0.01953125 347.203125 4.5849609375 346.315429688 10.1904296875 c 2
 322.745117188 135.469726562 l 1
 185.365234375 135.469726562 l 1
 161.794921875 10.1904296875 l 2
 160.907226562 4.5849609375 155.580078125 0.01953125 149.905273438 0 c 2
 39.9951171875 0 l 2
 33.3740234375 0.041015625 28 5.4482421875 28 12.0693359375 c 0
 28 12.5498046875 28.056640625 13.3251953125 28.125 13.7998046875 c 2
 158.504882812 789.809570312 l 2
 159.392578125 795.415039062 164.719726562 799.98046875 170.395507812 800 c 2
 337.825195312 800 l 2
 343.505859375 799.98046875 348.836914062 795.411132812 349.725585938 789.799804688 c 2
 479.995117188 13.7998046875 l 2
210.205078125 268.190429688 m 1
 297.905273438 268.190429688 l 1
 254.0546875 501.66015625 l 1
 210.205078125 268.190429688 l 1
EndSplineSet
Validated: 1
EndChar

StartChar: J_bis
Encoding: 258 -1 43
Width: 291
VWidth: 0
Flags: W
HStem: -180.68 132.68<-46 107.735> 667.34 132.66<53.2598 114.14>
VStem: 114.14 132.67<-41.5952 667.34>
LayerCount: 2
Fore
SplineSet
246.809570312 788 m 2
 246.809570312 -53.6796875 l 2
 246.809570312 -123.784179688 189.9140625 -180.6796875 119.809570312 -180.6796875 c 2
 -34 -180.6796875 l 2
 -40.6240234375 -180.6796875 -46 -175.303710938 -46 -168.6796875 c 2
 -46 -60 l 2
 -46 -53.3759765625 -40.6240234375 -48 -34 -48 c 2
 69.919921875 -48 l 2
 94.3291015625 -48 114.139648438 -28.189453125 114.139648438 -3.7802734375 c 2
 114.139648438 667.33984375 l 1
 65.259765625 667.33984375 l 2
 58.6357421875 667.33984375 53.259765625 672.715820312 53.259765625 679.33984375 c 2
 53.259765625 788 l 2
 53.259765625 794.624023438 58.6357421875 800 65.259765625 800 c 2
 234.76953125 800 l 2
 234.78125 800 234.798828125 800 234.809570312 800 c 0
 241.43359375 800 246.809570312 794.624023438 246.809570312 788 c 2
EndSplineSet
Validated: 1
EndChar

StartChar: M_bis
Encoding: 259 -1 44
Width: 640
VWidth: 0
Flags: W
HStem: 0 21G<53.688 171.972 290.207 349.873 468.688 586.912> 780 20G<53.688 171.312 468.748 586.912>
VStem: 45 135.66<0 372.94 767.481 800> 460 135.6<0 375.91>
LayerCount: 2
Fore
SplineSet
595.599609375 788 m 2
 595.599609375 12 l 2
 595.599609375 5.3759765625 590.223632812 0 583.599609375 0 c 2
 472 0 l 2
 465.375976562 0 460 5.3759765625 460 12 c 2
 460 375.91015625 l 1
 361.1796875 12.240234375 l 2
 359.915039062 5.4833984375 353.309570312 0 346.436523438 0 c 0
 346.42578125 0 346.41015625 0 346.400390625 0 c 2
 293.6796875 0 l 2
 293.669921875 0 293.654296875 0 293.643554688 0 c 0
 286.770507812 0 280.165039062 5.4833984375 278.900390625 12.240234375 c 2
 180.66015625 372.940429688 l 1
 180.66015625 12 l 2
 180.66015625 5.3759765625 175.284179688 0 168.66015625 0 c 2
 57 0 l 2
 50.3759765625 0 45 5.3759765625 45 12 c 2
 45 788 l 2
 45 794.624023438 50.3759765625 800 57 800 c 2
 168.169921875 800 l 2
 168.177734375 800 168.190429688 800 168.198242188 800 c 0
 174.426757812 800 180.8828125 795.143554688 182.610351562 789.16015625 c 2
 320.08984375 357.33984375 l 1
 457.450195312 789.150390625 l 2
 459.173828125 795.139648438 465.631835938 800 471.864257812 800 c 0
 471.874023438 800 471.890625 800 471.900390625 800 c 2
 583.559570312 800 l 2
 583.571289062 800 583.588867188 800 583.599609375 800 c 0
 590.223632812 800 595.599609375 794.624023438 595.599609375 788 c 2
EndSplineSet
Validated: 1
EndChar

StartChar: M_tris
Encoding: 260 -1 45
Width: 640
VWidth: 0
Flags: W
HStem: 0 21G<53.688 171.982 468.688 586.912> 780 20G<53.688 171.312 468.748 586.912>
VStem: 45 135.67<0 372.94 768.012 800> 460 135.6<0 375.91>
LayerCount: 2
Fore
SplineSet
595.599609375 788 m 2
 595.599609375 12 l 2
 595.599609375 5.3759765625 590.223632812 0 583.599609375 0 c 2
 472 0 l 2
 465.375976562 0 460 5.3759765625 460 12 c 2
 460 375.91015625 l 1
 361.1796875 118.370117188 l 2
 359.915039062 111.61328125 353.309570312 106.129882812 346.436523438 106.129882812 c 0
 346.42578125 106.129882812 346.41015625 106.129882812 346.400390625 106.129882812 c 2
 293.6796875 106.129882812 l 2
 293.669921875 106.129882812 293.654296875 106.129882812 293.643554688 106.129882812 c 0
 286.770507812 106.129882812 280.165039062 111.61328125 278.900390625 118.370117188 c 2
 180.669921875 372.940429688 l 1
 180.669921875 12 l 2
 180.669921875 5.3759765625 175.293945312 0 168.669921875 0 c 2
 57 0 l 2
 50.3759765625 0 45 5.3759765625 45 12 c 2
 45 788 l 2
 45 794.624023438 50.3759765625 800 57 800 c 2
 168.169921875 800 l 2
 168.177734375 800 168.190429688 800 168.198242188 800 c 0
 174.426757812 800 180.8828125 795.143554688 182.610351562 789.16015625 c 2
 320.08984375 367.950195312 l 1
 457.450195312 789.150390625 l 2
 459.173828125 795.139648438 465.631835938 800 471.864257812 800 c 0
 471.874023438 800 471.890625 800 471.900390625 800 c 2
 583.559570312 800 l 2
 583.571289062 800 583.588867188 800 583.599609375 800 c 0
 590.223632812 800 595.599609375 794.624023438 595.599609375 788 c 2
EndSplineSet
Validated: 1
EndChar

StartChar: Q_bis
Encoding: 261 -1 46
Width: 564
VWidth: 0
Flags: W
HStem: 0 132.69<184.087 302.478 441.55 519.12> 667.32 132.68<184.086 302.465>
VStem: 45 132.68<139.095 660.914> 308.87 132.68<139.128 660.91>
LayerCount: 2
Fore
SplineSet
177.6796875 176.91015625 m 2
 177.6796875 152.500976562 197.500976562 132.690429688 221.91015625 132.690429688 c 2
 264.740234375 132.690429688 l 2
 289.099609375 132.739257812 308.870117188 152.549804688 308.870117188 176.91015625 c 2
 308.870117188 623.08984375 l 2
 308.870117188 647.499023438 289.059570312 667.314453125 264.650390625 667.3203125 c 2
 221.91015625 667.3203125 l 2
 197.495117188 667.3203125 177.6796875 647.504882812 177.6796875 623.08984375 c 2
 177.6796875 176.91015625 l 2
507.120117188 132.690429688 m 2
 513.744140625 132.690429688 519.120117188 127.314453125 519.120117188 120.690429688 c 0
 519.120117188 120.678710938 519.120117188 120.661132812 519.120117188 120.650390625 c 2
 519.120117188 12 l 2
 519.120117188 5.3759765625 513.744140625 0 507.120117188 0 c 2
 172 0 l 2
 101.896484375 0 45 56.896484375 45 127 c 2
 45 673 l 2
 45 743.103515625 101.896484375 800 172 800 c 2
 314.549804688 800 l 2
 384.654296875 800 441.549804688 743.103515625 441.549804688 673 c 2
 441.549804688 132.690429688 l 1
 507.120117188 132.690429688 l 2
EndSplineSet
Validated: 1
EndChar

StartChar: Q_tris
Encoding: 262 -1 47
Width: 547
VWidth: 0
Flags: W
HStem: 0 132.69<184.092 302.448> 667.32 132.68<184.097 302.443>
VStem: 45 132.67<139.086 660.898> 308.87 132.68<139.076 660.898>
LayerCount: 2
Fore
SplineSet
221.940429688 132.690429688 m 1
 264.599609375 132.6796875 l 2
 264.616210938 132.6796875 264.643554688 132.6796875 264.66015625 132.6796875 c 0
 289.036132812 132.6796875 308.842773438 152.463867188 308.870117188 176.83984375 c 2
 308.870117188 623.059570312 l 2
 308.84765625 647.474609375 289.014648438 667.303710938 264.599609375 667.3203125 c 2
 221.940429688 667.3203125 l 2
 197.525390625 667.303710938 177.692382812 647.474609375 177.669921875 623.059570312 c 2
 177.669921875 176.849609375 l 2
 177.697265625 152.473632812 197.50390625 132.690429688 221.879882812 132.690429688 c 0
 221.940429688 132.690429688 l 1
501.200195312 -24.9404296875 m 2
 501.862304688 -26.3076171875 502.400390625 -28.6513671875 502.400390625 -30.1708984375 c 0
 502.400390625 -34.3486328125 499.33984375 -39.2001953125 495.5703125 -41 c 2
 398 -88.6201171875 l 2
 396.624023438 -89.2841796875 394.267578125 -89.8232421875 392.740234375 -89.8232421875 c 0
 388.596679688 -89.8232421875 383.741210938 -86.8115234375 381.900390625 -83.099609375 c 2
 340.169921875 2.5400390625 l 1
 340.0703125 2.5400390625 l 2
 333.172851562 1.1376953125 321.862304688 0 314.823242188 0 c 0
 314.76171875 0 314.662109375 0 314.599609375 0 c 2
 172 0 l 2
 101.896484375 0 45 56.896484375 45 127 c 2
 45 673.049804688 l 2
 45.02734375 743.125976562 101.923828125 800 172 800 c 2
 314.599609375 800 l 2
 384.6484375 799.97265625 441.522460938 743.098632812 441.549804688 673.049804688 c 2
 441.549804688 127 l 2
 441.549804688 126.9765625 441.549804688 126.938476562 441.549804688 126.9140625 c 0
 441.549804688 120.032226562 440.45703125 108.96875 439.110351562 102.219726562 c 1
 501.200195312 -24.9404296875 l 2
EndSplineSet
Validated: 1
EndChar

StartChar: Q_quater
Encoding: 263 -1 48
Width: 486
VWidth: 0
Flags: W
HStem: 667.32 132.68<184.105 302.474>
VStem: 45 132.68<139.066 660.895> 308.87 132.68<139.06 660.898>
LayerCount: 2
Fore
SplineSet
314.599609375 800 m 2
 384.676757812 799.97265625 441.549804688 743.076171875 441.549804688 673 c 0
 441.549804688 672.986328125 441.549804688 672.963867188 441.549804688 672.950195312 c 2
 441.549804688 126.950195312 l 2
 441.549804688 126.921875 441.549804688 126.876953125 441.549804688 126.849609375 c 0
 441.549804688 68.2265625 394.711914062 12.2939453125 337 2 c 1
 376.690429688 -79.3203125 l 2
 377.34765625 -80.6904296875 377.880859375 -83.0361328125 377.880859375 -84.556640625 c 0
 377.880859375 -88.7412109375 374.825195312 -93.6220703125 371.059570312 -95.4501953125 c 2
 273.51953125 -143 l 2
 272.131835938 -143.686523438 269.75 -144.243164062 268.201171875 -144.243164062 c 0
 264.0390625 -144.243164062 259.196289062 -141.200195312 257.389648438 -137.450195312 c 2
 190.309570312 0 l 1
 172.049804688 0 l 2
 172.036132812 0 172.013671875 0 172 0 c 0
 101.923828125 0 45.02734375 56.8740234375 45 126.950195312 c 2
 45 672.950195312 l 2
 45.005859375 743.076171875 101.923828125 799.994140625 172.049804688 800 c 2
 314.599609375 800 l 2
177.6796875 623.059570312 m 2
 177.6796875 176.830078125 l 2
 177.708007812 152.454101562 197.513671875 132.669921875 221.889648438 132.669921875 c 0
 221.903320312 132.669921875 221.92578125 132.669921875 221.940429688 132.669921875 c 2
 264.709960938 132.669921875 l 2
 264.720703125 132.669921875 264.739257812 132.669921875 264.75 132.669921875 c 0
 289.104492188 132.669921875 308.870117188 152.435546875 308.870117188 176.790039062 c 0
 308.870117188 176.80078125 308.870117188 176.819335938 308.870117188 176.830078125 c 2
 308.870117188 623.059570312 l 2
 308.870117188 623.07421875 308.870117188 623.096679688 308.870117188 623.110351562 c 0
 308.870117188 647.486328125 289.0859375 667.291992188 264.709960938 667.3203125 c 2
 221.940429688 667.3203125 l 2
 197.530273438 667.297851562 177.702148438 647.469726562 177.6796875 623.059570312 c 2
EndSplineSet
Validated: 1
EndChar

StartChar: S_bis
Encoding: 264 -1 49
Width: 462
VWidth: 0
Flags: W
HStem: 0 132.66<181.4 278.44> 667.34 132.66<181.43 280.69>
VStem: 45 132.66<136.43 284.6 482.848 663.57> 282.21 134.88<136.43 316.477 515.4 664.688>
LayerCount: 2
Fore
SplineSet
417.08984375 284.639648438 m 2
 417.08984375 127 l 2
 417.08984375 56.896484375 360.194335938 0 290.08984375 0 c 2
 172 0 l 2
 101.896484375 0 45 56.896484375 45 127 c 2
 45 272.599609375 l 2
 45 279.223632812 50.3759765625 284.599609375 57 284.599609375 c 2
 165.629882812 284.599609375 l 2
 172.25390625 284.599609375 177.629882812 279.223632812 177.629882812 272.599609375 c 2
 177.629882812 170.870117188 l 2
 177.629882812 149.778320312 194.748046875 132.66015625 215.83984375 132.66015625 c 2
 244 132.66015625 l 2
 265.091796875 132.66015625 282.209960938 149.778320312 282.209960938 170.870117188 c 2
 282.209960938 284.639648438 l 2
 282.200195312 386.870117188 45 267.370117188 45 515.360351562 c 2
 45 673 l 2
 45 743.103515625 101.896484375 800 172 800 c 2
 290.139648438 800 l 2
 360.244140625 800 417.139648438 743.103515625 417.139648438 673 c 2
 417.139648438 527.400390625 l 2
 417.139648438 520.776367188 411.763671875 515.400390625 405.139648438 515.400390625 c 2
 296.459960938 515.400390625 l 2
 289.8359375 515.400390625 284.459960938 520.776367188 284.459960938 527.400390625 c 2
 284.459960938 629.129882812 l 2
 284.459960938 650.221679688 267.341796875 667.33984375 246.25 667.33984375 c 2
 215.870117188 667.33984375 l 2
 194.778320312 667.33984375 177.66015625 650.221679688 177.66015625 629.129882812 c 2
 177.66015625 515.360351562 l 2
 177.66015625 412.0703125 417.08984375 527.400390625 417.08984375 284.639648438 c 2
EndSplineSet
Validated: 1
EndChar

StartChar: S_tris
Encoding: 265 -1 50
Width: 462
VWidth: 0
Flags: W
HStem: 0 132.66<181.4 278.44> 667.34 132.66<181.43 280.69>
VStem: 45 132.63<136.43 284.6 553.357 663.57> 284.46 132.68<137.725 242.143 515.4 663.57>
LayerCount: 2
Fore
SplineSet
417.08984375 222.08984375 m 2
 417.08984375 127 l 2
 417.08984375 56.896484375 360.194335938 0 290.08984375 0 c 2
 172 0 l 2
 101.896484375 0 45 56.896484375 45 127 c 2
 45 272.599609375 l 2
 45 279.223632812 50.3759765625 284.599609375 57 284.599609375 c 2
 165.629882812 284.599609375 l 2
 172.25390625 284.599609375 177.629882812 279.223632812 177.629882812 272.599609375 c 2
 177.629882812 170.870117188 l 2
 177.629882812 149.778320312 194.748046875 132.66015625 215.83984375 132.66015625 c 2
 244 132.66015625 l 2
 265.091796875 132.66015625 282.209960938 149.778320312 282.209960938 170.870117188 c 2
 282.209960938 207.559570312 l 2
 282.208984375 214.1953125 278.978515625 223.889648438 275 229.200195312 c 2
 68.1796875 505.3203125 l 2
 55.384765625 522.40234375 45.0009765625 553.587890625 45 574.9296875 c 2
 45 673 l 2
 45 743.103515625 101.896484375 800 172 800 c 2
 290.139648438 800 l 2
 360.244140625 800 417.139648438 743.103515625 417.139648438 673 c 2
 417.139648438 527.400390625 l 2
 417.139648438 520.776367188 411.763671875 515.400390625 405.139648438 515.400390625 c 2
 296.459960938 515.400390625 l 2
 289.8359375 515.400390625 284.459960938 520.776367188 284.459960938 527.400390625 c 2
 284.459960938 629.129882812 l 2
 284.459960938 650.221679688 267.341796875 667.33984375 246.25 667.33984375 c 2
 215.870117188 667.33984375 l 2
 194.778320312 667.33984375 177.66015625 650.221679688 177.66015625 629.129882812 c 2
 177.66015625 592.440429688 l 2
 177.661132812 585.8046875 180.891601562 576.110351562 184.870117188 570.799804688 c 2
 393.870117188 291.709960938 l 2
 406.678710938 274.629882812 417.08984375 243.439453125 417.08984375 222.08984375 c 2
EndSplineSet
Validated: 1
EndChar

StartChar: S_quater
Encoding: 266 -1 51
Width: 462
VWidth: 0
Flags: W
HStem: 0 132.66<181.4 278.44> 667.34 132.66<181.43 280.69>
VStem: 45 132.63<136.43 284.6 521.967 663.57> 284.46 132.68<137.725 275.546 515.4 663.57>
LayerCount: 2
Fore
SplineSet
417.08984375 260.759765625 m 2
 417.08984375 127 l 2
 417.08984375 56.896484375 360.194335938 0 290.08984375 0 c 2
 172 0 l 2
 101.896484375 0 45 56.896484375 45 127 c 2
 45 272.599609375 l 2
 45 279.223632812 50.3759765625 284.599609375 57 284.599609375 c 2
 165.629882812 284.599609375 l 2
 172.25390625 284.599609375 177.629882812 279.223632812 177.629882812 272.599609375 c 2
 177.629882812 170.870117188 l 2
 177.629882812 149.778320312 194.748046875 132.66015625 215.83984375 132.66015625 c 2
 244 132.66015625 l 2
 265.091796875 132.66015625 282.209960938 149.778320312 282.209960938 170.870117188 c 2
 282.209960938 219.580078125 l 2
 282.200195312 353.73046875 45 379.709960938 45 536.26953125 c 2
 45 673 l 2
 45 743.103515625 101.896484375 800 172 800 c 2
 290.139648438 800 l 2
 360.244140625 800 417.139648438 743.103515625 417.139648438 673 c 2
 417.139648438 527.400390625 l 2
 417.139648438 520.776367188 411.763671875 515.400390625 405.139648438 515.400390625 c 2
 296.459960938 515.400390625 l 2
 289.8359375 515.400390625 284.459960938 520.776367188 284.459960938 527.400390625 c 2
 284.459960938 629.129882812 l 2
 284.459960938 650.221679688 267.341796875 667.33984375 246.25 667.33984375 c 2
 215.870117188 667.33984375 l 2
 194.778320312 667.33984375 177.66015625 650.221679688 177.66015625 629.129882812 c 0
 177.66015625 608.038085938 176.48046875 656.809570312 177.66015625 580.419921875 c 0
 179.709960938 447.169921875 417.08984375 422.700195312 417.08984375 260.759765625 c 2
EndSplineSet
Validated: 1
EndChar

StartChar: W_bis
Encoding: 267 -1 52
Width: 797
VWidth: 0
Flags: W
HStem: 0 21G<185.908 321.167 476.679 611.89> 780 20G<47.2637 164.556 633.344 749.734>
LayerCount: 2
Fore
SplineSet
50.52734375 800 m 6
 161.407226562 800 l 2
 167.705078125 799.998046875 173.681640625 794.958007812 174.747070312 788.75 c 2
 253.657226562 336.75 l 1
 342.88671875 682.950195312 l 2
 344.075195312 688.975585938 350.025390625 693.868164062 356.166992188 693.870117188 c 2
 441.626953125 693.870117188 l 2
 447.76953125 693.868164062 453.71875 688.975585938 454.907226562 682.950195312 c 2
 544.237304688 336.639648438 l 1
 623.147460938 788.790039062 l 2
 624.228515625 794.977539062 630.203125 800 636.485351562 800 c 2
 747.256835938 800 l 2
 752.210600261 800 758.881366172 794.846145437 757.626953125 787.66015625 c 2
 622.086914062 11.2099609375 l 2
 621.005859375 5.0224609375 615.030273438 0 608.749023438 0 c 2
 479.836914062 0 l 2
 473.520507812 0.017578125 467.552734375 5.0888671875 466.516601562 11.3203125 c 2
 398.987304688 418.889648438 l 1
 331.357421875 11.3203125 l 2
 330.318359375 5.0712890625 324.334960938 0 318 0 c 2
 189.046875 0 l 2
 182.76953125 0.00390625 176.797851562 5.025390625 175.716796875 11.2099609375 c 2
 40.1572265625 787.66015625 l 6
 39.3043574933 792.543953867 44 800 50.52734375 800 c 6
EndSplineSet
Validated: 1
EndChar
